<svg width="1280" height="279" viewBox="0 0 1280 279" fill="none" xmlns="http://www.w3.org/2000/svg">
<mask id="mask0_3766_96839" style="mask-type:alpha" maskUnits="userSpaceOnUse" x="0" y="0" width="1280" height="279">
<g clip-path="url(#clip0_3766_96839)">
<path d="M440.783 179.165C440.783 152.62 430.163 139.338 408.923 139.318C388.985 139.318 379.026 152.601 379.046 179.165V265.68C379.038 269.154 377.652 272.483 375.193 274.937C372.734 277.39 369.402 278.768 365.928 278.768H332.378C328.904 278.768 325.572 277.39 323.113 274.937C320.654 272.483 319.269 269.154 319.261 265.68V179.165C319.261 152.62 310.633 139.338 293.377 139.318C277.461 139.318 266.171 145.964 259.505 159.257V265.68C259.505 269.151 258.127 272.48 255.672 274.935C253.218 277.389 249.889 278.768 246.418 278.768H212.867C211.146 278.772 209.441 278.436 207.85 277.78C206.258 277.124 204.812 276.161 203.594 274.945C202.375 273.73 201.409 272.285 200.749 270.696C200.089 269.106 199.75 267.401 199.75 265.68V92.6505C199.75 90.9293 200.089 89.225 200.749 87.6352C201.409 86.0454 202.375 84.6013 203.594 83.3856C204.812 82.1699 206.258 81.2064 207.85 80.5504C209.441 79.8944 211.146 79.5587 212.867 79.5625H246.418C249.889 79.5625 253.218 80.9415 255.672 83.3959C258.127 85.8504 259.505 89.1794 259.505 92.6505V99.4714C272.797 86.2182 287.372 79.582 303.229 79.5625C322.195 79.5625 337.469 87.734 349.051 104.077C360.458 87.7146 381.037 79.5431 410.789 79.5625C470.544 79.5625 500.422 112.763 500.422 179.165V265.68C500.422 267.399 500.083 269.101 499.426 270.689C498.768 272.277 497.804 273.72 496.589 274.935C495.373 276.15 493.931 277.114 492.343 277.772C490.755 278.43 489.053 278.768 487.334 278.768H453.871C450.4 278.768 447.071 277.389 444.616 274.935C442.162 272.48 440.783 269.151 440.783 265.68V179.165Z" fill="#FAFAFA"/>
<path d="M641.915 79.4852C695.024 79.4852 721.579 112.686 721.579 179.088C721.579 245.49 695.024 278.691 641.915 278.691C632.69 278.946 623.511 277.308 614.943 273.879C606.375 270.45 598.601 265.302 592.099 258.753V261.289C592.099 265.927 590.257 270.376 586.977 273.656C583.697 276.936 579.248 278.778 574.61 278.778H548.172C543.974 278.778 539.948 277.111 536.98 274.143C534.011 271.174 532.344 267.148 532.344 262.95V15.6192C532.351 11.4264 534.022 7.40799 536.99 4.44596C539.957 1.48393 543.979 -0.179695 548.172 -0.179687H574.726C579.365 -0.179687 583.813 1.66294 587.093 4.94287C590.373 8.22279 592.216 12.6713 592.216 17.3099V99.5107C598.7 92.9645 606.452 87.8116 614.998 84.3681C623.544 80.9246 632.704 79.263 641.915 79.4852ZM661.824 179.088C661.824 152.543 651.864 139.261 631.946 139.241C612.027 139.222 598.745 145.868 592.099 159.179V198.997C598.745 212.289 612.027 218.935 631.946 218.935C651.864 218.935 661.824 205.653 661.824 179.088Z" fill="#FAFAFA"/>
<path d="M813.21 13.1706V46.1967C813.21 49.7451 811.8 53.1483 809.291 55.6574C806.782 58.1666 803.379 59.5762 799.831 59.5762H766.805C765.049 59.5762 763.311 59.2299 761.689 58.5571C760.068 57.8844 758.595 56.8984 757.355 55.6557C756.114 54.4129 755.132 52.9377 754.462 51.3146C753.793 49.6915 753.451 47.9523 753.455 46.1967V13.1706C753.455 9.62989 754.861 6.23416 757.365 3.73048C759.869 1.2268 763.264 -0.179687 766.805 -0.179687H799.831C803.374 -0.179696 806.773 1.22586 809.281 3.7287C811.789 6.23154 813.202 9.62721 813.21 13.1706ZM753.367 265.253V92.8063C753.367 89.2629 754.773 85.8642 757.276 83.3559C759.778 80.8476 763.174 79.4346 766.717 79.4268H799.743C803.289 79.4346 806.688 80.8466 809.195 83.3541C811.703 85.8616 813.115 89.2602 813.123 92.8063V265.253C813.115 268.799 811.703 272.198 809.195 274.705C806.688 277.213 803.289 278.625 799.743 278.633H766.805C765.043 278.64 763.297 278.3 761.667 277.631C760.037 276.962 758.555 275.978 757.307 274.735C756.058 273.491 755.067 272.014 754.391 270.387C753.715 268.76 753.367 267.015 753.367 265.253Z" fill="#FAFAFA"/>
<path d="M1279.72 179.165C1279.72 245.567 1249.83 278.768 1190.06 278.768C1130.28 278.768 1100.4 245.567 1100.42 179.165C1100.42 112.763 1130.3 79.5625 1190.06 79.5625C1249.81 79.5625 1279.7 112.763 1279.72 179.165ZM1190.06 219.012C1209.99 219.012 1219.96 205.73 1219.96 179.165C1219.96 152.601 1209.99 139.318 1190.06 139.318C1170.16 139.318 1160.21 152.601 1160.21 179.165C1160.21 205.73 1170.16 219.012 1190.06 219.012Z" fill="#FAFAFA"/>
<path d="M970.944 210.919C960.547 216.499 948.868 219.254 937.073 218.906C919.846 218.906 911.189 212.231 911.189 198.997V139.212H970.973V79.4269H911.16V-0.179688L851.375 19.7001V198.997C851.375 252.107 879.931 278.652 937.044 278.633C950.336 278.633 964.91 274.698 980.913 266.711L970.944 210.919Z" fill="#FAFAFA"/>
<path d="M1078.32 13.1707V46.1967C1078.32 47.9523 1077.98 49.6915 1077.31 51.3146C1076.64 52.9377 1075.66 54.4129 1074.42 55.6557C1073.18 56.8985 1071.71 57.8845 1070.08 58.5572C1068.46 59.2299 1066.72 59.5763 1064.97 59.5763H1031.94C1030.18 59.5801 1028.44 59.2367 1026.82 58.5656C1025.19 57.8946 1023.72 56.9092 1022.47 55.666C1021.23 54.4229 1020.24 52.9464 1019.57 51.3214C1018.9 49.6964 1018.56 47.9548 1018.56 46.1967V13.1707C1018.56 11.415 1018.91 9.67659 1019.58 8.05495C1020.25 6.43331 1021.24 4.96027 1022.48 3.72019C1023.73 2.48012 1025.2 1.49733 1026.82 0.828131C1028.45 0.15893 1030.19 -0.183489 1031.94 -0.179656H1064.97C1068.51 -0.179656 1071.9 1.22684 1074.41 3.73051C1076.91 6.23419 1078.32 9.62992 1078.32 13.1707ZM1018.68 265.253V92.8064C1018.68 89.2579 1020.09 85.8548 1022.6 83.3456C1025.11 80.8365 1028.51 79.4269 1032.06 79.4269H1065.08C1068.63 79.4346 1072.02 80.8476 1074.53 83.3559C1077.03 85.8642 1078.43 89.263 1078.43 92.8064V265.253C1078.43 268.797 1077.03 272.195 1074.53 274.704C1072.02 277.212 1068.63 278.625 1065.08 278.633H1031.94C1028.41 278.602 1025.04 277.179 1022.56 274.673C1020.07 272.167 1018.68 268.782 1018.68 265.253Z" fill="#FAFAFA"/>
<path d="M53.064 231.623C37.0233 236.54 20.6278 240.214 4.0229 242.612C0.941015 234.067 -0.393017 224.99 0.0999591 215.92C0.592936 206.85 2.90288 197.971 6.89272 189.811C7.40129 188.739 7.96435 187.686 8.54557 186.632C9.41741 185.07 10.3619 183.544 11.3427 182.055C12.9899 179.586 14.8109 177.237 16.7917 175.026C17.5909 174.136 18.4083 173.209 19.2801 172.446C24.9269 166.912 31.6974 162.657 39.1327 159.968C50.9482 156.016 63.1699 153.402 75.5684 152.176L82.3796 151.377L92.5329 150.287C93.8463 150.155 95.1505 149.942 96.438 149.651C98.8896 149.266 101.09 147.928 102.559 145.928C102.75 145.644 102.92 145.346 103.068 145.038L103.286 144.547C103.558 143.829 103.765 143.087 103.903 142.331C104.166 140.674 104.27 138.995 104.212 137.318C104.212 136.501 104.212 135.684 104.212 134.903C104.103 132.541 103.903 130.325 103.631 128.255C103.364 126.316 102.988 124.394 102.505 122.497C99.544 111.272 92.7327 105.932 80.7086 105.696C76.354 105.683 72.0091 106.109 67.7399 106.967C62.4726 107.966 57.2415 109.31 52.065 110.836C49.4858 111.599 46.9066 112.416 44.3455 113.27C41.7845 114.124 39.2416 114.995 36.6988 115.885C35.2317 116.441 33.6996 116.807 32.1398 116.975C31.8131 116.993 31.4857 116.993 31.159 116.975C30.5463 116.968 29.9367 116.889 29.3426 116.739C27.9138 116.346 26.6714 115.457 25.8371 114.233C25.0112 112.953 24.3978 111.548 24.0208 110.073C23.4759 108.257 22.7857 106.44 22.2044 104.624C21.9865 104.006 21.7685 103.389 21.5687 102.808C20.4971 99.4656 19.5889 96.5958 18.935 94.1255C18.6686 93.1447 18.4325 92.2184 18.2266 91.3465C18.2266 90.9106 18.0632 90.4928 17.9724 90.0751C17.614 88.3618 17.5221 86.6035 17.6999 84.8622C17.7789 84.3036 17.919 83.7554 18.1177 83.2275C18.307 82.7094 18.557 82.2155 18.8624 81.7562C19.3729 81.0628 19.9853 80.4504 20.6787 79.9399C23.603 77.5968 28.8159 75.8712 37.0257 73.4737C42.9384 71.7612 48.9339 70.3487 54.9893 69.2415L57.2415 68.8419C59.5119 68.4605 61.7642 68.1336 64.0346 67.843L66.305 67.5887C71.6066 67.0045 76.937 66.7195 82.2706 66.735C84.541 66.735 86.8478 66.735 89.1364 66.9348C96.1012 67.3267 103.021 68.2988 109.824 69.841C116.109 71.2096 122.124 73.6094 127.625 76.9429C128.787 77.6513 129.895 78.396 130.985 79.1952C134.724 81.9149 138.036 85.1779 140.811 88.8763C146.538 96.6959 149.755 106.07 150.038 115.758C150.42 124.186 150.601 132.65 150.692 141.096C150.779 149.139 148.436 157.02 143.972 163.71C134.972 176.936 124.135 188.813 111.786 198.983C94.3914 213.39 74.4827 224.456 53.064 231.623Z" fill="#FAFAFA"/>
<path d="M160.462 261.579C160.462 261.87 160.462 262.16 160.372 262.433C160.286 262.974 160.14 263.504 159.936 264.013C159.52 265.025 158.858 265.918 158.01 266.61C157.528 267.007 157.012 267.36 156.466 267.664C155.833 268.026 155.171 268.336 154.487 268.59L149.31 270.661C144.152 272.786 139.011 274.911 133.799 276.891C121.32 281.613 120.013 280.959 114.945 268.263C114.822 267.945 114.676 267.635 114.509 267.337C113.576 265.675 112.092 264.39 110.313 263.704C109.155 263.266 107.917 263.08 106.681 263.159C106.063 263.21 105.454 263.332 104.864 263.523C104.555 263.619 104.251 263.734 103.956 263.868C103.349 264.146 102.777 264.494 102.249 264.903L101.268 265.684C100.305 266.447 99.3427 267.21 98.3618 267.936C96.7835 269.165 95.1338 270.299 93.4214 271.333C91.7145 272.371 89.9498 273.311 88.1359 274.148C85.4076 275.421 82.5836 276.478 79.6899 277.309C74.8409 278.726 69.8418 279.567 64.796 279.815L61.7445 279.924C57.6867 279.955 53.6336 279.639 49.6296 278.98C48.6306 278.816 47.6316 278.616 46.6508 278.417C44.671 277.999 42.7275 277.49 40.8022 276.909C38.8769 276.328 37.006 275.638 35.1534 274.875C33.2949 274.134 31.4761 273.297 29.7044 272.368C22.745 268.769 16.6764 263.662 11.9406 257.42C9.80118 254.528 7.92297 251.453 6.32812 248.229C29.9405 256.929 60.6002 266.392 86.2469 257.783C108.043 250.517 131.819 234.515 152.089 215.008C152.361 218.096 152.743 221.183 153.215 224.271C154.105 230.156 155.268 236.023 156.539 241.872C157.611 246.721 158.755 251.571 159.881 256.402C160.155 257.501 160.349 258.618 160.462 259.745C160.503 260.355 160.503 260.968 160.462 261.579Z" fill="#FAFAFA"/>
<path d="M151.499 204.528C151.354 201.186 151.082 198.462 151.191 195.737C151.191 194.811 152.171 193.921 152.843 192.994C158.674 185.729 164.541 178.373 170.189 170.835C169.844 171.107 169.463 171.362 169.136 171.67C161.871 178.591 154.605 185.493 147.34 192.468C146.919 192.948 146.361 193.29 145.741 193.445C145.122 193.601 144.469 193.564 143.871 193.339C139.076 192.014 134.208 190.851 129.031 189.543L178.345 161.172C175.657 174.486 173.059 187.364 170.407 200.387C166.466 199.333 162.761 198.389 159.073 197.299C158.555 197.053 157.96 197.02 157.417 197.206C156.874 197.393 156.425 197.785 156.167 198.298C154.787 200.278 153.297 202.131 151.499 204.528Z" fill="#FAFAFA"/>
<path d="M10.9609 245.583C10.9609 245.583 85.5578 261.676 143.463 200.883C143.39 200.883 101.015 275.135 10.9609 245.583Z" fill="#FAFAFA"/>
</g>
</mask>
<g mask="url(#mask0_3766_96839)">
<g filter="url(#filter0_f_3766_96839)">
<ellipse cx="-4.85658" cy="84.1612" rx="86.1512" ry="86.1508" fill="#B1060F"/>
</g>
<g filter="url(#filter1_f_3766_96839)">
<ellipse cx="124.182" cy="84.1612" rx="86.1512" ry="86.1508" fill="#ED9C00"/>
</g>
<g filter="url(#filter2_f_3766_96839)">
<ellipse cx="515.143" cy="84.1612" rx="86.1512" ry="86.1508" fill="#B1060F"/>
</g>
<g filter="url(#filter3_f_3766_96839)">
<ellipse cx="644.182" cy="84.1612" rx="86.1512" ry="86.1508" fill="#ED9C00"/>
</g>
<g filter="url(#filter4_f_3766_96839)">
<ellipse cx="464.182" cy="84.1612" rx="86.1512" ry="86.1508" fill="#ED9C00"/>
</g>
<g filter="url(#filter5_f_3766_96839)">
<ellipse cx="335.143" cy="84.1612" rx="86.1512" ry="86.1508" fill="#B1060F"/>
</g>
<g filter="url(#filter6_f_3766_96839)">
<ellipse cx="775.143" cy="84.1612" rx="86.1512" ry="86.1508" fill="#B1060F"/>
</g>
<g filter="url(#filter7_f_3766_96839)">
<ellipse cx="904.182" cy="84.1612" rx="86.1512" ry="86.1508" fill="#ED9C00"/>
</g>
<g filter="url(#filter8_f_3766_96839)">
<ellipse cx="1035.14" cy="84.1612" rx="86.1512" ry="86.1508" fill="#B1060F"/>
</g>
<g filter="url(#filter9_f_3766_96839)">
<ellipse cx="1164.18" cy="84.1612" rx="86.1512" ry="86.1508" fill="#ED9C00"/>
</g>
<g filter="url(#filter10_f_3766_96839)">
<ellipse cx="1295.14" cy="84.1612" rx="86.1512" ry="86.1508" fill="#B1060F"/>
</g>
<g filter="url(#filter11_f_3766_96839)">
<ellipse cx="1424.18" cy="84.1612" rx="86.1512" ry="86.1508" fill="#ED9C00"/>
</g>
<g filter="url(#filter12_f_3766_96839)">
<ellipse cx="86.1512" cy="86.1508" rx="86.1512" ry="86.1508" transform="matrix(-1 0 0 1 218.008 130.01)" fill="#B1060F"/>
</g>
<g filter="url(#filter13_f_3766_96839)">
<ellipse cx="86.1512" cy="86.1508" rx="86.1512" ry="86.1508" transform="matrix(-1 0 0 1 88.9688 130.01)" fill="#ED9C00"/>
</g>
<g filter="url(#filter14_f_3766_96839)">
<ellipse cx="86.1512" cy="86.1508" rx="86.1512" ry="86.1508" transform="matrix(-1 0 0 1 478.008 130.01)" fill="#B1060F"/>
</g>
<g filter="url(#filter15_f_3766_96839)">
<ellipse cx="86.1512" cy="86.1508" rx="86.1512" ry="86.1508" transform="matrix(-1 0 0 1 348.969 130.01)" fill="#ED9C00"/>
</g>
<g filter="url(#filter16_f_3766_96839)">
<ellipse cx="86.1512" cy="86.1508" rx="86.1512" ry="86.1508" transform="matrix(-1 0 0 1 738.008 130.01)" fill="#B1060F"/>
</g>
<g filter="url(#filter17_f_3766_96839)">
<ellipse cx="86.1512" cy="86.1508" rx="86.1512" ry="86.1508" transform="matrix(-1 0 0 1 608.969 130.01)" fill="#ED9C00"/>
</g>
<g filter="url(#filter18_f_3766_96839)">
<ellipse cx="86.1512" cy="86.1508" rx="86.1512" ry="86.1508" transform="matrix(-1 0 0 1 997.344 130.01)" fill="#B1060F"/>
</g>
<g filter="url(#filter19_f_3766_96839)">
<ellipse cx="86.1512" cy="86.1508" rx="86.1512" ry="86.1508" transform="matrix(-1 0 0 1 868.305 130.01)" fill="#ED9C00"/>
</g>
<g filter="url(#filter20_f_3766_96839)">
<ellipse cx="86.1512" cy="86.1508" rx="86.1512" ry="86.1508" transform="matrix(-1 0 0 1 1258.01 130.01)" fill="#B1060F"/>
</g>
<g filter="url(#filter21_f_3766_96839)">
<ellipse cx="86.1512" cy="86.1508" rx="86.1512" ry="86.1508" transform="matrix(-1 0 0 1 1128.97 130.01)" fill="#ED9C00"/>
</g>
<g filter="url(#filter22_f_3766_96839)">
<ellipse cx="86.1512" cy="86.1508" rx="86.1512" ry="86.1508" transform="matrix(-1 0 0 1 1518.01 130.01)" fill="#B1060F"/>
</g>
<g filter="url(#filter23_f_3766_96839)">
<ellipse cx="86.1512" cy="86.1508" rx="86.1512" ry="86.1508" transform="matrix(-1 0 0 1 1388.97 130.01)" fill="#ED9C00"/>
</g>
</g>
<defs>
<filter id="filter0_f_3766_96839" x="-206.906" y="-117.887" width="404.1" height="404.097" filterUnits="userSpaceOnUse" color-interpolation-filters="sRGB">
<feFlood flood-opacity="0" result="BackgroundImageFix"/>
<feBlend mode="normal" in="SourceGraphic" in2="BackgroundImageFix" result="shape"/>
<feGaussianBlur stdDeviation="57.9489" result="effect1_foregroundBlur_3766_96839"/>
</filter>
<filter id="filter1_f_3766_96839" x="-77.8666" y="-117.887" width="404.1" height="404.097" filterUnits="userSpaceOnUse" color-interpolation-filters="sRGB">
<feFlood flood-opacity="0" result="BackgroundImageFix"/>
<feBlend mode="normal" in="SourceGraphic" in2="BackgroundImageFix" result="shape"/>
<feGaussianBlur stdDeviation="57.9489" result="effect1_foregroundBlur_3766_96839"/>
</filter>
<filter id="filter2_f_3766_96839" x="313.094" y="-117.887" width="404.1" height="404.097" filterUnits="userSpaceOnUse" color-interpolation-filters="sRGB">
<feFlood flood-opacity="0" result="BackgroundImageFix"/>
<feBlend mode="normal" in="SourceGraphic" in2="BackgroundImageFix" result="shape"/>
<feGaussianBlur stdDeviation="57.9489" result="effect1_foregroundBlur_3766_96839"/>
</filter>
<filter id="filter3_f_3766_96839" x="442.133" y="-117.887" width="404.1" height="404.097" filterUnits="userSpaceOnUse" color-interpolation-filters="sRGB">
<feFlood flood-opacity="0" result="BackgroundImageFix"/>
<feBlend mode="normal" in="SourceGraphic" in2="BackgroundImageFix" result="shape"/>
<feGaussianBlur stdDeviation="57.9489" result="effect1_foregroundBlur_3766_96839"/>
</filter>
<filter id="filter4_f_3766_96839" x="262.133" y="-117.887" width="404.1" height="404.097" filterUnits="userSpaceOnUse" color-interpolation-filters="sRGB">
<feFlood flood-opacity="0" result="BackgroundImageFix"/>
<feBlend mode="normal" in="SourceGraphic" in2="BackgroundImageFix" result="shape"/>
<feGaussianBlur stdDeviation="57.9489" result="effect1_foregroundBlur_3766_96839"/>
</filter>
<filter id="filter5_f_3766_96839" x="133.094" y="-117.887" width="404.1" height="404.097" filterUnits="userSpaceOnUse" color-interpolation-filters="sRGB">
<feFlood flood-opacity="0" result="BackgroundImageFix"/>
<feBlend mode="normal" in="SourceGraphic" in2="BackgroundImageFix" result="shape"/>
<feGaussianBlur stdDeviation="57.9489" result="effect1_foregroundBlur_3766_96839"/>
</filter>
<filter id="filter6_f_3766_96839" x="573.094" y="-117.887" width="404.1" height="404.097" filterUnits="userSpaceOnUse" color-interpolation-filters="sRGB">
<feFlood flood-opacity="0" result="BackgroundImageFix"/>
<feBlend mode="normal" in="SourceGraphic" in2="BackgroundImageFix" result="shape"/>
<feGaussianBlur stdDeviation="57.9489" result="effect1_foregroundBlur_3766_96839"/>
</filter>
<filter id="filter7_f_3766_96839" x="702.133" y="-117.887" width="404.1" height="404.097" filterUnits="userSpaceOnUse" color-interpolation-filters="sRGB">
<feFlood flood-opacity="0" result="BackgroundImageFix"/>
<feBlend mode="normal" in="SourceGraphic" in2="BackgroundImageFix" result="shape"/>
<feGaussianBlur stdDeviation="57.9489" result="effect1_foregroundBlur_3766_96839"/>
</filter>
<filter id="filter8_f_3766_96839" x="833.094" y="-117.887" width="404.1" height="404.097" filterUnits="userSpaceOnUse" color-interpolation-filters="sRGB">
<feFlood flood-opacity="0" result="BackgroundImageFix"/>
<feBlend mode="normal" in="SourceGraphic" in2="BackgroundImageFix" result="shape"/>
<feGaussianBlur stdDeviation="57.9489" result="effect1_foregroundBlur_3766_96839"/>
</filter>
<filter id="filter9_f_3766_96839" x="962.133" y="-117.887" width="404.1" height="404.097" filterUnits="userSpaceOnUse" color-interpolation-filters="sRGB">
<feFlood flood-opacity="0" result="BackgroundImageFix"/>
<feBlend mode="normal" in="SourceGraphic" in2="BackgroundImageFix" result="shape"/>
<feGaussianBlur stdDeviation="57.9489" result="effect1_foregroundBlur_3766_96839"/>
</filter>
<filter id="filter10_f_3766_96839" x="1093.09" y="-117.887" width="404.1" height="404.097" filterUnits="userSpaceOnUse" color-interpolation-filters="sRGB">
<feFlood flood-opacity="0" result="BackgroundImageFix"/>
<feBlend mode="normal" in="SourceGraphic" in2="BackgroundImageFix" result="shape"/>
<feGaussianBlur stdDeviation="57.9489" result="effect1_foregroundBlur_3766_96839"/>
</filter>
<filter id="filter11_f_3766_96839" x="1222.13" y="-117.887" width="404.1" height="404.097" filterUnits="userSpaceOnUse" color-interpolation-filters="sRGB">
<feFlood flood-opacity="0" result="BackgroundImageFix"/>
<feBlend mode="normal" in="SourceGraphic" in2="BackgroundImageFix" result="shape"/>
<feGaussianBlur stdDeviation="57.9489" result="effect1_foregroundBlur_3766_96839"/>
</filter>
<filter id="filter12_f_3766_96839" x="-70.1947" y="14.1125" width="404.1" height="404.097" filterUnits="userSpaceOnUse" color-interpolation-filters="sRGB">
<feFlood flood-opacity="0" result="BackgroundImageFix"/>
<feBlend mode="normal" in="SourceGraphic" in2="BackgroundImageFix" result="shape"/>
<feGaussianBlur stdDeviation="57.9489" result="effect1_foregroundBlur_3766_96839"/>
</filter>
<filter id="filter13_f_3766_96839" x="-199.234" y="14.1125" width="404.1" height="404.097" filterUnits="userSpaceOnUse" color-interpolation-filters="sRGB">
<feFlood flood-opacity="0" result="BackgroundImageFix"/>
<feBlend mode="normal" in="SourceGraphic" in2="BackgroundImageFix" result="shape"/>
<feGaussianBlur stdDeviation="57.9489" result="effect1_foregroundBlur_3766_96839"/>
</filter>
<filter id="filter14_f_3766_96839" x="189.805" y="14.1125" width="404.1" height="404.097" filterUnits="userSpaceOnUse" color-interpolation-filters="sRGB">
<feFlood flood-opacity="0" result="BackgroundImageFix"/>
<feBlend mode="normal" in="SourceGraphic" in2="BackgroundImageFix" result="shape"/>
<feGaussianBlur stdDeviation="57.9489" result="effect1_foregroundBlur_3766_96839"/>
</filter>
<filter id="filter15_f_3766_96839" x="60.7662" y="14.1125" width="404.1" height="404.097" filterUnits="userSpaceOnUse" color-interpolation-filters="sRGB">
<feFlood flood-opacity="0" result="BackgroundImageFix"/>
<feBlend mode="normal" in="SourceGraphic" in2="BackgroundImageFix" result="shape"/>
<feGaussianBlur stdDeviation="57.9489" result="effect1_foregroundBlur_3766_96839"/>
</filter>
<filter id="filter16_f_3766_96839" x="449.805" y="14.1125" width="404.1" height="404.097" filterUnits="userSpaceOnUse" color-interpolation-filters="sRGB">
<feFlood flood-opacity="0" result="BackgroundImageFix"/>
<feBlend mode="normal" in="SourceGraphic" in2="BackgroundImageFix" result="shape"/>
<feGaussianBlur stdDeviation="57.9489" result="effect1_foregroundBlur_3766_96839"/>
</filter>
<filter id="filter17_f_3766_96839" x="320.766" y="14.1125" width="404.1" height="404.097" filterUnits="userSpaceOnUse" color-interpolation-filters="sRGB">
<feFlood flood-opacity="0" result="BackgroundImageFix"/>
<feBlend mode="normal" in="SourceGraphic" in2="BackgroundImageFix" result="shape"/>
<feGaussianBlur stdDeviation="57.9489" result="effect1_foregroundBlur_3766_96839"/>
</filter>
<filter id="filter18_f_3766_96839" x="709.141" y="14.1125" width="404.1" height="404.097" filterUnits="userSpaceOnUse" color-interpolation-filters="sRGB">
<feFlood flood-opacity="0" result="BackgroundImageFix"/>
<feBlend mode="normal" in="SourceGraphic" in2="BackgroundImageFix" result="shape"/>
<feGaussianBlur stdDeviation="57.9489" result="effect1_foregroundBlur_3766_96839"/>
</filter>
<filter id="filter19_f_3766_96839" x="580.102" y="14.1125" width="404.1" height="404.097" filterUnits="userSpaceOnUse" color-interpolation-filters="sRGB">
<feFlood flood-opacity="0" result="BackgroundImageFix"/>
<feBlend mode="normal" in="SourceGraphic" in2="BackgroundImageFix" result="shape"/>
<feGaussianBlur stdDeviation="57.9489" result="effect1_foregroundBlur_3766_96839"/>
</filter>
<filter id="filter20_f_3766_96839" x="969.805" y="14.1125" width="404.1" height="404.097" filterUnits="userSpaceOnUse" color-interpolation-filters="sRGB">
<feFlood flood-opacity="0" result="BackgroundImageFix"/>
<feBlend mode="normal" in="SourceGraphic" in2="BackgroundImageFix" result="shape"/>
<feGaussianBlur stdDeviation="57.9489" result="effect1_foregroundBlur_3766_96839"/>
</filter>
<filter id="filter21_f_3766_96839" x="840.766" y="14.1125" width="404.1" height="404.097" filterUnits="userSpaceOnUse" color-interpolation-filters="sRGB">
<feFlood flood-opacity="0" result="BackgroundImageFix"/>
<feBlend mode="normal" in="SourceGraphic" in2="BackgroundImageFix" result="shape"/>
<feGaussianBlur stdDeviation="57.9489" result="effect1_foregroundBlur_3766_96839"/>
</filter>
<filter id="filter22_f_3766_96839" x="1229.81" y="14.1125" width="404.1" height="404.097" filterUnits="userSpaceOnUse" color-interpolation-filters="sRGB">
<feFlood flood-opacity="0" result="BackgroundImageFix"/>
<feBlend mode="normal" in="SourceGraphic" in2="BackgroundImageFix" result="shape"/>
<feGaussianBlur stdDeviation="57.9489" result="effect1_foregroundBlur_3766_96839"/>
</filter>
<filter id="filter23_f_3766_96839" x="1100.77" y="14.1125" width="404.1" height="404.097" filterUnits="userSpaceOnUse" color-interpolation-filters="sRGB">
<feFlood flood-opacity="0" result="BackgroundImageFix"/>
<feBlend mode="normal" in="SourceGraphic" in2="BackgroundImageFix" result="shape"/>
<feGaussianBlur stdDeviation="57.9489" result="effect1_foregroundBlur_3766_96839"/>
</filter>
<clipPath id="clip0_3766_96839">
<rect width="1280" height="279" fill="white"/>
</clipPath>
</defs>
</svg>
